<svg xmlns="http://www.w3.org/2000/svg" viewBox="0 0 1034.17 628.63"><defs><style>.cls-1{fill:#c0e6f9;}.cls-2{fill:#91badb;}.cls-3{fill:#f5faff;}.cls-4{fill:#1d3142;}.cls-5{fill:#5f7682;}.cls-6{fill:#a4d2f4;}.cls-7{fill:#fff;}.cls-8{fill:#f955c2;}.cls-9{fill:#ab94c4;}.cls-10{fill:#efeff4;}</style></defs><title>beat-machine-bkg-3</title><g id="main-bkg"><polygon class="cls-1" points="15 628.63 0 595.63 0 47.63 10.83 18.13 11.88 7.13 15.5 4.13 57.5 4.13 67.5 8.13 248.17 8.79 962.17 7.46 975.5 0.79 1018.17 0.79 1020.83 6.79 1020.83 10.13 1034.17 41.46 1034.17 594.13 1025.5 613.46 1023.5 620.13 1019.5 625.46 962.17 625.46 959.5 611.46 73.5 612.13 72.83 628.63 15 628.63"/></g><g id="bottom-shadow"><polygon class="cls-2" points="73.25 610.63 53 578.88 55 578.88 978.5 578.79 978.5 587.79 959.5 611.46 73.25 610.63"/><polygon class="cls-2" points="15 628.63 1.38 598.66 49.17 598.66 71.17 628.63 15 628.63"/><polygon class="cls-2" points="961.95 624.31 982.83 598.79 1032.78 597.22 1021.5 624.31 961.95 624.31"/></g><g id="hilight-bottom"><polygon class="cls-3" points="53.63 579.86 52 574.2 977.5 573.2 978.5 578.79 53.63 579.86"/></g><g id="side-shadows"><polygon class="cls-4" points="49.17 598.66 50.83 21.46 57.5 4.13 67.5 8.13 59.83 10.79 54.83 26.79 52 574.2 73.25 610.63 72.83 628.63 71.17 628.63 49.17 598.66"/><polygon class="cls-5" points="962.17 625.46 959.5 611.46 978.5 587.79 977.75 22.13 972.5 7.13 962.17 7.46 975.5 0.79 981.25 20.13 982.83 598.79 962.17 625.46"/></g><g id="hi-top"><polygon class="cls-6" points="981.25 20.13 975.5 0.79 1018.17 0.79 1020.5 4.63 1020.5 20.13 981.25 20.13"/><polygon class="cls-6" points="977.75 22.13 972.5 7.13 67.5 8.13 59.83 10.79 56.29 22.13 977.75 22.13"/><polygon class="cls-6" points="50.83 21.46 57.5 4.13 15.5 4.13 11.88 7.13 10.83 18.13 13.25 22.13 50.83 21.46"/></g><g id="hilight-top"><polygon class="cls-3" points="54.8 33.13 59 27.13 977.75 25.63 977.75 22.13 56.29 22.13 54.8 33.13"/><polygon class="cls-7" points="13.25 22.13 50.83 23.13 50.83 21.46 14 21.19 13.25 22.13"/><polygon class="cls-7" points="981.25 20.13 980.49 17.55 982.83 17.55 1020.5 17.55 1020.5 20.13 981.25 20.13"/></g><g id="cable-inputs"><polygon class="cls-8" points="251 8.79 251 6.13 255 3.63 271.83 3.63 277.33 5.29 277.33 8.74 251 8.79"/><polygon class="cls-8" points="289.17 8.71 289.17 3.63 294.5 2.79 308.17 2.79 314 4.79 314 8.79 289.17 8.71"/><polygon class="cls-8" points="329.67 8.64 329.67 3.63 336.83 2.79 351.67 2.79 355.83 5.79 355.83 8.64 329.67 8.64"/><polygon class="cls-8" points="368.33 8.57 368.33 3.96 370.83 2.79 386 2.79 391.67 3.96 391.67 6.63 393.33 8.52 368.33 8.57"/><polygon class="cls-8" points="405.33 8.5 405.33 4.79 407.17 2.79 423.83 2.79 428.83 4.29 429.83 6.46 429.83 8.64 405.33 8.5"/><polygon class="cls-8" points="444.5 8.43 444.5 3.79 446.67 2.79 463.33 2.79 469.17 3.96 469.17 8.64 444.5 8.43"/><polygon class="cls-8" points="481.17 8.36 482.33 2.79 504 2.79 506.83 5.72 506.83 8.64 481.17 8.36"/><polygon class="cls-8" points="518.5 8.64 518.5 4.96 522 2.79 538.17 2.79 543.5 5.72 543.5 8.64 518.5 8.64"/><polygon class="cls-8" points="554.67 8.22 557.67 6.13 557.67 2.79 560.08 1.71 576.58 1.71 579.75 4.63 580.58 7.13 582.33 7.56 582.33 8.22 554.67 8.22"/><polygon class="cls-8" points="591.08 8.15 591.5 3.88 593.58 1.71 613.08 1.71 618.33 4.21 618.33 8.1 591.08 8.15"/><polygon class="cls-8" points="628.75 7.5 630.5 1.71 647.88 1.71 654.63 3.63 654.63 6.25 655.75 8.15 628.75 7.5"/><polygon class="cls-8" points="666.13 7.46 666.13 3.63 669.13 1.71 689.88 1.71 693.63 4.59 693.63 7.13 694.13 8.15 665.63 8.15 666.13 7.46"/><polygon class="cls-8" points="703.88 7.42 705 5.88 706 1.71 711.13 0 722.5 0 729.38 3.71 729.38 6.25 731 7.89 703.88 7.42"/><polygon class="cls-8" points="739.88 7.38 740.63 6.25 740.63 2.75 742.38 1.63 763 1.63 766.13 3.94 766.13 7.13 767.75 7.82 739.88 7.38"/><polygon class="cls-8" points="776.88 7.8 776.88 3.25 779.88 1.63 800.5 1.63 803.5 3.63 805.49 7.82 776.88 7.8"/><polygon class="cls-8" points="814.13 7.3 815.13 6.13 815.13 2.88 817.5 1.63 840.5 1.63 840.5 7.13 814.13 7.3"/><polygon class="cls-8" points="853.75 7.13 854.88 5.13 854.88 1.63 865.63 0.79 877.38 0.79 882.38 2.5 882.38 5.5 883.38 7.13 853.75 7.13"/><polygon class="cls-8" points="888.75 7.13 889.5 6.13 890.25 2.25 900.63 0.25 911.88 0.79 918.13 2.25 918.13 5 920.25 7.54 888.75 7.13"/></g><g id="button-area"><polygon class="cls-9" points="85 101.88 85 97.38 946.35 94.43 946.35 99.06 85 101.88"/><polygon class="cls-9" points="85.75 499.36 85.75 495.36 947.25 492.86 947.25 496.86 85.75 499.36"/><path class="cls-10" d="M123.75,515.08c-2.5,0-3.25-3.39-3.25-7.34s.07-340.72,0-345.24c0-3.32.33-5.71,4.83-6,1.08-.09,851.59,0,852.84,0s3.58,1.13,3.75,5.27,1.41,341.49,1,343.75-.17,4.9-2.25,4.9S123.75,515.08,123.75,515.08Z" transform="translate(-36.5 -37.88)"/></g></svg>