<svg xmlns="http://www.w3.org/2000/svg" viewBox="0 0 173.33 308"><defs><style>.cls-1{fill:#5bd6a7;}.cls-2{fill:#52aa75;}.cls-3{fill:#6d5b67;}.cls-4{fill:#a3959c;}.cls-5{fill:#4adeed;}.cls-6{fill:#3cafaf;}</style></defs><title>button-blue-dark</title><g id="buttons_green" data-name="buttons green"><path class="cls-1" d="M4.58,303.86c19.27,1.14,148.29,1.61,157.1,0s8-6.41,7.22-14.42,4.93-259.71.46-273.34S167.29,3.28,155.27,3.28s-137.87,0-143.48,0S4.58,12.9,4.58,26.52c0,12.26-3.34,218.83-2.29,269.55C2.39,301,2.31,303.73,4.58,303.86Z"/><path class="cls-2" d="M7,88.24s4.81,11.23,6.81,13.23,139.48.4,143.48,0S168.1,83,166.89,82.63,7,82.63,7,82.63Z"/><circle class="cls-3" cx="86.04" cy="48.67" r="24.75"/><path class="cls-4" d="M88.14,60.79c.4-3.81-1-10.62,1-11s4.61.2,5,2.2,2.21,5.21,2,6.62-.41,1.8-2.61,2.2A22.21,22.21,0,0,1,88.14,60.79Z"/></g><g id="buttons_mag_copy_2" data-name="buttons mag copy 2"><path class="cls-5" d="M4.58,303.86c19.27,1.14,148.29,1.61,157.1,0s8-6.41,7.22-14.42,4.93-259.71.46-273.34S167.29,3.28,155.27,3.28s-137.87,0-143.48,0S4.58,12.9,4.58,26.52c0,12.26-3.34,218.83-2.29,269.55C2.39,301,2.31,303.73,4.58,303.86Z"/><path class="cls-6" d="M7,88.24s4.81,11.23,6.81,13.23,139.48.4,143.48,0S168.1,83,166.89,82.63,7,82.63,7,82.63Z"/><circle class="cls-3" cx="86.04" cy="48.67" r="24.75"/><path class="cls-4" d="M88.14,60.79c.4-3.81-1-10.62,1-11s4.61.2,5,2.2,2.21,5.21,2,6.62-.41,1.8-2.61,2.2A22.21,22.21,0,0,1,88.14,60.79Z"/></g></svg>